<svg width="54" height="54" viewBox="0 0 54 54" fill="none" xmlns="http://www.w3.org/2000/svg">
<circle opacity="0.1" cx="27" cy="27" r="27" fill="#15589F"/>
<path d="M16.8516 33.3976C16.1869 32.4243 15.7122 31.4095 15.4273 30.3531C15.1424 29.2967 15 28.1988 15 27.0593C15 23.8546 16.1632 21.0653 18.4896 18.6914C20.816 16.3175 23.5697 15.1306 26.7507 15.1306H28.2819L25.8605 12.6736L27.5341 11L33.3027 16.8042L27.5341 22.5727L25.8249 20.8991L28.2107 18.4777H26.822C24.5193 18.4777 22.5312 19.3264 20.8576 21.0237C19.184 22.7211 18.3472 24.7329 18.3472 27.0593C18.3472 27.819 18.4243 28.5312 18.5786 29.1958C18.7329 29.8605 18.9407 30.4777 19.2018 31.0475L16.8516 33.3976ZM26.3947 43.2255L20.6261 37.457L26.3947 31.6172L28.1039 33.3264L25.6469 35.7478H27.178C29.4807 35.7478 31.4688 34.8991 33.1424 33.2018C34.816 31.5044 35.6528 29.4807 35.6528 27.1306C35.6528 26.3947 35.5757 25.6944 35.4214 25.0297C35.2671 24.365 35.0475 23.7478 34.7626 23.178L37.1484 20.8279C37.7893 21.8249 38.2582 22.8457 38.5549 23.8902C38.8516 24.9347 39 26.0148 39 27.1306C39 30.359 37.8368 33.1662 35.5104 35.5519C33.184 37.9377 30.4421 39.1306 27.2849 39.1306H25.6469L28.1039 41.5519L26.3947 43.2255Z" fill="black"/>
</svg>
