<svg width="54" height="54" viewBox="0 0 54 54" fill="none" xmlns="http://www.w3.org/2000/svg">
<circle opacity="0.1" cx="27" cy="27" r="27" fill="#15589F"/>
<path d="M20.1435 25.5157L27.2735 14L34.4036 25.5157H20.1435ZM33.8829 38C32.378 38 31.111 37.4785 30.0818 36.4355C29.0527 35.3925 28.5381 34.1282 28.5381 32.6426C28.5381 31.1569 29.054 29.8892 30.0858 28.8393C31.1176 27.7895 32.3833 27.2646 33.8829 27.2646C35.378 27.2646 36.6457 27.7882 37.6861 28.8354C38.7265 29.8826 39.2466 31.1517 39.2466 32.6426C39.2466 34.1335 38.7278 35.3991 37.6901 36.4395C36.6523 37.4798 35.3833 38 33.8829 38ZM16 37.3274V27.7758H25.5516V37.3274H16Z" fill="black"/>
</svg>
