<svg width="54" height="54" viewBox="0 0 54 54" fill="none" xmlns="http://www.w3.org/2000/svg">
<circle opacity="0.1" cx="27" cy="27" r="27" fill="#15589F"/>
<path d="M25.9595 39.1965C22.8844 38.9422 20.289 37.6821 18.1734 35.4162C16.0578 33.1503 15 30.4566 15 27.3353C15 25.5087 15.4104 23.7803 16.2312 22.1503C17.052 20.5202 18.2023 19.1618 19.6821 18.0751L22.0058 20.3988C20.8497 21.1387 19.9364 22.1329 19.2659 23.3815C18.5954 24.6301 18.2601 25.948 18.2601 27.3353C18.2601 29.578 18.9942 31.5087 20.4624 33.1272C21.9306 34.7457 23.763 35.6705 25.9595 35.9017V39.1965ZM28.0405 39.1965V35.9017C30.2832 35.6474 32.1214 34.7168 33.5549 33.1098C34.9884 31.5029 35.7052 29.578 35.7052 27.3353C35.7052 25.0231 34.9249 23.0347 33.3642 21.3699C31.8035 19.7052 29.8671 18.8035 27.5549 18.6647H26.7572L28.9769 20.9191L27.2081 22.6879L21.3815 16.8613L27.2081 11L28.9769 12.7688L26.3757 15.3699H27.2081C30.4913 15.3699 33.2775 16.5434 35.5665 18.8902C37.8555 21.237 39 24.052 39 27.3353C39 30.4566 37.9422 33.1503 35.8266 35.4162C33.711 37.6821 31.1156 38.9422 28.0405 39.1965Z" fill="black"/>
</svg>
