<svg width="50" height="44" viewBox="0 0 50 44" fill="none" xmlns="http://www.w3.org/2000/svg">
<path d="M35.4151 35.1726C34.5405 35.1726 33.7294 35.4361 33.043 35.8766L20.7137 24.5813L29.3558 11.8399H24.5051L31.3099 0H22.6116L14.892 17.4499H21.2823H21.3879C21.3879 17.4499 19.1547 24.7006 19.1498 24.729L6.9036 35.948C6.19373 35.4606 5.3372 35.1731 4.41271 35.1731C1.97951 35.1731 0 37.1531 0 39.5868C0 42.02 1.97951 44 4.41271 44C6.84689 44 8.8264 42.02 8.8264 39.5868C8.8264 38.5499 8.45191 37.6083 7.85156 36.8539L19.358 26.312V35.2293C17.1893 35.506 15.5012 37.3438 15.5012 39.5868C15.5012 42.02 17.4807 44 19.9139 44C22.3481 44 24.3276 42.02 24.3276 39.5868C24.3276 37.4103 22.7412 35.6082 20.6653 35.2489V26.312L32.0608 36.7522C31.4101 37.5212 31.0019 38.5024 31.0019 39.5868C31.0019 42.02 32.9814 44 35.4146 44C37.8488 44 39.8283 42.02 39.8283 39.5868C39.8288 37.1531 37.8493 35.1726 35.4151 35.1726ZM4.41271 42.6912C2.70062 42.6912 1.30778 41.2984 1.30778 39.5868C1.30778 37.8747 2.70062 36.4819 4.41271 36.4819C6.1248 36.4819 7.51911 37.8747 7.51911 39.5868C7.51911 41.2984 6.1248 42.6912 4.41271 42.6912ZM23.0203 39.5868C23.0203 41.2984 21.6265 42.6912 19.9139 42.6912C18.2018 42.6912 16.809 41.2984 16.809 39.5868C16.809 37.8747 18.2018 36.4819 19.9139 36.4819C21.626 36.4814 23.0203 37.8742 23.0203 39.5868ZM35.4151 42.6912C33.703 42.6912 32.3102 41.2984 32.3102 39.5868C32.3102 37.8747 33.703 36.4819 35.4151 36.4819C37.1272 36.4819 38.5215 37.8747 38.5215 39.5868C38.521 41.2984 37.1272 42.6912 35.4151 42.6912Z" fill="white"/>
</svg>
