<svg width="50" height="44" viewBox="0 0 50 44" fill="none" xmlns="http://www.w3.org/2000/svg">
<path d="M43.269 36.7998L34.9443 28.5956C34.6287 28.2843 34.2118 28.1135 33.7688 28.1135C33.7645 28.1135 33.7597 28.1135 33.755 28.1138C33.3074 28.1172 32.8878 28.2951 32.5738 28.6148L32.5315 28.6579L30.0159 26.1943C30.547 25.4544 30.9805 24.7526 31.32 24.07C32.5313 21.7302 33.1561 19.091 33.1264 16.4376C33.1237 14.379 32.7169 12.3289 31.9182 10.3443C29.4073 4.094 23.1705 -0.0740993 16.4574 0.00556949C15.9061 -0.0177235 15.3748 0.0362892 14.861 0.0889517C12.1442 0.368806 9.52183 1.33057 7.28232 2.86791C3.29483 5.56112 0.68635 9.83725 0.125967 14.5951C0.0395467 15.2895 -0.00163807 15.9748 4.98213e-05 16.6955C0.0115276 17.8318 0.11854 18.8165 0.321088 19.6757C0.900038 22.7608 2.3442 25.5965 4.49223 27.8701C5.13835 28.5712 5.88744 29.2383 6.79115 29.9158C7.41398 30.3672 8.12492 30.8124 8.94794 31.2618C9.14543 31.3526 9.34561 31.4545 9.5647 31.5656C10.1821 31.8562 10.8475 32.1175 11.5456 32.3424C12.239 32.5621 12.8578 32.7174 13.4081 32.8106C14.0565 32.95 14.676 33.0324 15.2644 33.0597C15.7701 33.1124 16.268 33.1215 16.6441 33.1171C16.6782 33.1208 16.7167 33.1232 16.7589 33.1232C16.8044 33.1232 16.8547 33.1201 16.9088 33.1127C17.3699 33.1174 17.8533 33.0894 18.3779 33.027C19.0814 32.9476 19.6793 32.8437 20.2376 32.7046C22.3849 32.2408 24.4126 31.3153 26.2739 29.9626L28.8052 32.4531L28.7565 32.5027C28.1097 33.1613 28.1191 34.2233 28.7767 34.8702L37.1403 43.0976C37.7503 43.6992 38.548 44 39.346 44C40.1538 44 40.9623 43.6915 41.5757 43.0754L43.347 41.2659C43.9317 40.6775 44.2514 39.8933 44.247 39.0575C44.2429 38.2152 43.9121 37.428 43.269 36.7998ZM28.7112 25.6451C28.6643 25.6998 28.6251 25.7525 28.5846 25.8082L28.5579 25.8433C28.5388 25.8678 28.5107 25.8832 28.4948 25.9104C28.4712 25.9514 28.441 25.9888 28.4109 26.0274C28.3871 26.0576 28.3616 26.0867 28.3376 26.1167C28.0226 26.5143 27.6877 26.8965 27.3295 27.2575C27.3245 27.2625 27.3199 27.268 27.3149 27.2731C26.9358 27.6539 26.5336 28.0135 26.1098 28.3495C26.0632 28.3866 26.0177 28.4251 25.9657 28.4568C25.9184 28.4859 25.8884 28.5321 25.8501 28.5707C25.8485 28.5719 25.8464 28.5742 25.8448 28.5753C25.8118 28.5925 25.7804 28.6128 25.7506 28.6354C23.9672 29.9921 22.0143 30.9063 19.925 31.3576C19.4058 31.4866 18.865 31.5804 18.2182 31.6534C17.7193 31.7131 17.2858 31.7381 16.8649 31.729C16.8237 31.7283 16.7849 31.731 16.7454 31.7371C16.7248 31.7354 16.7038 31.7344 16.6833 31.7344H16.6802C16.3261 31.735 15.8656 31.7317 15.3687 31.6814C14.8188 31.655 14.2723 31.5821 13.6697 31.4532C13.1539 31.3651 12.5958 31.225 11.9666 31.0255C11.3279 30.8195 10.7179 30.5802 10.1727 30.324C9.95596 30.2136 9.73957 30.1035 9.56909 30.0272C8.83992 29.6275 8.17826 29.2133 7.6118 28.8032C6.78541 28.183 6.09742 27.5713 5.50328 26.9269C3.53181 24.84 2.20985 22.2447 1.67377 19.3901C1.48844 18.6008 1.39324 17.7147 1.38278 16.6867C1.38109 16.0302 1.4189 15.4019 1.49857 14.7615C2.01236 10.399 4.40243 6.4817 8.06045 4.01096C10.1143 2.60122 12.5152 1.72048 15.0028 1.46425C15.4882 1.41463 15.947 1.36737 16.4355 1.38762C16.4841 1.38695 16.532 1.38695 16.5806 1.38695C22.7172 1.38695 28.3531 5.17898 30.6354 10.8601C31.3687 12.682 31.7417 14.5603 31.7437 16.443C31.7437 16.4454 31.7437 16.4477 31.7437 16.4501C31.7714 18.8787 31.2002 21.2937 30.0869 23.4441C29.7317 24.1584 29.2723 24.8903 28.7112 25.6451Z" fill="white"/>
<path d="M21.1069 19.8618C19.8763 20.8919 18.2931 21.5142 16.5647 21.5142C14.8362 21.5142 13.26 20.8989 12.0293 19.8687C11.172 20.3181 10.377 20.8989 9.67178 21.6041C8.89746 22.3715 8.26141 23.2633 7.77745 24.252C7.65301 24.5147 7.70141 24.8258 7.90881 25.0332C10.211 27.3769 13.2876 28.6698 16.5647 28.6698C19.8486 28.6698 22.9183 27.3769 25.2205 25.0332C25.4279 24.8258 25.4833 24.5147 25.3519 24.252C24.4117 22.3231 22.9183 20.8021 21.1069 19.8618Z" fill="white"/>
<path d="M16.5677 20.1319C19.7217 20.1319 22.2785 17.575 22.2785 14.421C22.2785 11.267 19.7217 8.71017 16.5677 8.71017C13.4136 8.71017 10.8568 11.267 10.8568 14.421C10.8568 17.575 13.4136 20.1319 16.5677 20.1319Z" fill="white"/>
</svg>
