<svg width="50" height="44" viewBox="0 0 50 44" fill="none" xmlns="http://www.w3.org/2000/svg">
<path d="M44.3492 18.0811C42.448 18.0811 40.8959 19.4004 40.5079 21.1852H34.7654C34.5326 17.6543 32.6314 14.5891 29.9153 12.6878L32.8642 7.64374C33.2522 7.76014 33.679 7.83774 34.1058 7.83774C36.2787 7.83774 38.0247 6.09171 38.0247 3.91887C38.0247 1.74603 36.2787 0 34.1058 0C31.933 0 30.1869 1.74603 30.1869 3.91887C30.1869 5.08289 30.6914 6.09171 31.4674 6.82892L28.5185 11.8342C27.0053 11.097 25.3369 10.6702 23.5132 10.6702C21.6508 10.6702 19.866 11.1358 18.3139 11.9506L15.3651 7.13933C16.3739 6.44092 17.0335 5.2769 17.0335 3.91887C17.0335 1.74603 15.2875 0 13.1146 0C10.9418 0 9.19577 1.74603 9.19577 3.91887C9.19577 6.09171 10.9418 7.83774 13.1146 7.83774C13.3474 7.83774 13.619 7.79894 13.8519 7.76014L16.9559 12.8042C14.2787 14.7443 12.455 17.8483 12.261 21.3792L7.83774 21.4568C7.60494 19.5168 5.93651 18.0423 3.95767 18.0423C1.74603 18.0811 0 19.8272 0 22C0 24.1728 1.74603 25.9189 3.91887 25.9189C5.6649 25.9189 7.17813 24.7549 7.68254 23.164L12.2998 23.0864C12.6102 26.5785 14.5503 29.6437 17.3439 31.4674L14.5503 36.4339C14.1235 36.2787 13.619 36.1623 13.1146 36.1623C10.9418 36.1623 9.19577 37.9083 9.19577 40.0811C9.19577 42.254 10.9418 44 13.1146 44C15.2875 44 17.0335 42.254 17.0335 40.0811C17.0335 39.0335 16.6067 38.0635 15.9083 37.3263L18.7407 32.2434C20.1764 32.9418 21.806 33.291 23.5132 33.291C25.2981 33.291 27.0053 32.8642 28.5185 32.127L31.4286 37.0547C30.575 37.7919 30.0317 38.8395 30.0317 40.0423C30.0317 42.2152 31.7778 43.9612 33.9506 43.9612C36.1235 43.9612 37.8695 42.2152 37.8695 40.0423C37.8695 37.8695 36.1235 36.1235 33.9506 36.1235C33.5626 36.1235 33.2134 36.1623 32.8642 36.2787L29.9153 31.3122C32.6702 29.4109 34.5326 26.3457 34.7654 22.8148H40.5079C40.8959 24.5996 42.448 25.9189 44.3492 25.9189C46.522 25.9189 48.2681 24.1728 48.2681 22C48.2681 19.8272 46.522 18.0811 44.3492 18.0811ZM19.8272 18.5855C19.8272 18.3527 19.8272 18.0423 19.866 17.7319C19.866 17.5767 19.866 17.4215 19.866 17.2663C19.866 16.9947 19.9048 16.7619 19.9048 16.7231C19.9824 15.9859 20.2152 15.2875 20.7972 14.7443C21.1076 14.4339 21.4956 14.2011 21.9224 14.0459C22.2716 13.9295 22.6208 13.8131 22.97 13.7743C23.164 13.7355 23.3192 13.7355 23.5132 13.7355C24.5608 13.7355 25.6861 14.0071 26.3845 14.8607C26.9665 15.5979 27.1605 16.5679 27.1605 17.4603C27.1605 17.4991 27.1605 17.4991 27.1605 17.5379C27.1605 17.5379 27.1605 18.0811 27.1605 18.1587C27.1605 18.2363 27.1605 18.3139 27.1605 18.4303C27.1605 18.5467 27.1217 18.6631 27.1217 18.7407C27.1217 18.7795 27.1217 18.8571 27.0829 18.8959C27.0441 19.1675 26.9665 19.5556 26.6173 19.9048C26.5785 19.9436 26.5397 19.9436 26.5397 19.9824L26.5009 20.0212C26.4621 20.06 26.4233 20.0988 26.3845 20.1376C26.3845 20.1764 26.3845 20.2152 26.3457 20.2152C26.3069 20.2928 26.3069 20.4092 26.2681 20.4868C26.1905 20.7196 26.0741 20.9136 25.9577 21.0688C25.7249 21.4568 25.3757 21.806 25.0265 22.0388C24.0176 22.7372 22.8536 22.7372 21.8448 22.0388C21.4956 21.806 21.224 21.4956 20.9912 21.1464C20.7584 20.836 20.6032 20.448 20.4868 20.06C20.0988 19.8272 19.866 19.4004 19.7884 18.8959V18.8571C19.7884 18.8571 19.7884 18.8571 19.7884 18.8183C19.8272 18.7407 19.8272 18.6631 19.8272 18.5855ZM29.3721 28.5185H29.0617C29.0229 28.5185 28.9841 28.5185 28.9841 28.5185H18.0423C18.0423 28.5185 18.0035 28.5185 17.9647 28.5185H17.6543C17.4215 28.5185 17.2275 28.3245 17.2663 28.0917C17.2663 28.0917 17.2663 28.0917 17.2663 28.0529C17.3827 27.1217 17.4603 25.2205 17.5767 24.2892C17.5767 24.2116 17.5767 24.134 17.6155 24.0952C17.6543 23.94 17.6931 23.7848 17.7319 23.6684C17.7707 23.5908 17.8095 23.5132 17.8871 23.4744C17.9647 23.4356 18.0423 23.3968 18.1587 23.358C18.5079 23.2416 18.8571 23.1252 19.2063 23.0476C19.5168 22.97 19.8272 22.8536 20.1376 22.776C20.3704 22.6984 20.642 22.6208 20.836 22.5432C21.3404 23.6684 22.3492 24.4444 23.5132 24.4832C24.716 24.4056 25.7249 23.6296 26.1905 22.5432C26.4233 22.6208 26.6561 22.6984 26.8889 22.776C27.1993 22.8536 27.5097 22.9312 27.8201 23.0476C28.1693 23.164 28.5185 23.2416 28.8677 23.358C28.9453 23.3968 29.0617 23.4356 29.1393 23.4744C29.2169 23.552 29.2557 23.5908 29.2945 23.6684C29.3333 23.7848 29.3721 23.9012 29.4109 24.0952C29.4109 24.1728 29.4109 24.2116 29.4497 24.2892C29.5661 25.2205 29.6437 27.1217 29.7601 28.0529C29.7601 28.0529 29.7601 28.0529 29.7601 28.0917C29.7989 28.3245 29.6049 28.5185 29.3721 28.5185Z" fill="white"/>
<path d="M6.28588 15.9471C6.28588 15.9471 6.32468 15.9471 6.32468 15.9859C6.71269 16.1411 7.1395 15.9859 7.3723 15.6367L10.2048 10.7478C10.4376 10.3598 10.2824 9.81657 9.89435 9.58376C9.89435 9.58376 9.89435 9.58376 9.85555 9.58376C9.46754 9.35096 8.92433 9.46736 8.69152 9.89417L5.85907 14.7831C5.58747 15.2099 5.78147 15.7919 6.28588 15.9471Z" fill="white"/>
<path d="M41.129 27.6259C40.7022 27.3543 40.159 27.5095 39.9262 27.8975L36.8222 33.252C36.5893 33.64 36.7446 34.1833 37.1326 34.4161C37.1326 34.4161 37.1326 34.4161 37.1714 34.4161C37.5594 34.6489 38.1026 34.5325 38.3354 34.1056L41.4394 28.7512C41.6722 28.3631 41.517 27.8587 41.129 27.6259Z" fill="white"/>
<path d="M37.2483 9.62296C37.2095 9.62296 37.2095 9.62296 37.2483 9.62296C36.8215 9.85577 36.6275 10.399 36.8991 10.787L39.9643 16.1027C40.1971 16.5295 40.7016 16.6459 41.1284 16.4131C41.1284 16.4131 41.1284 16.4131 41.1672 16.4131C41.5552 16.1803 41.7104 15.6759 41.4776 15.2491L38.4123 9.93337C38.1407 9.54536 37.6363 9.39016 37.2483 9.62296Z" fill="white"/>
<path d="M9.85573 34.4552C9.85573 34.4164 9.85573 34.4164 9.85573 34.4552C10.2825 34.2224 10.4377 33.6792 10.2049 33.2911L7.37248 28.4023C7.17848 28.0531 6.71287 27.8978 6.32486 28.0531C6.32486 28.0531 6.28606 28.053 6.28606 28.0919C5.82046 28.2859 5.58765 28.8679 5.85926 29.2947L8.69171 34.1836C8.92451 34.5328 9.42892 34.688 9.85573 34.4552Z" fill="white"/>
<path d="M26.617 39.1888H20.4089C19.9433 39.1888 19.5553 39.5768 19.5553 40.0424C19.5553 40.0424 19.5553 40.0424 19.5553 40.0812C19.5553 40.5468 19.9433 40.9348 20.4089 40.9348H26.617C27.0826 40.9348 27.4706 40.5468 27.4706 40.0812C27.4706 40.0812 27.4706 40.0812 27.4706 40.0424C27.4706 39.538 27.0826 39.1888 26.617 39.1888Z" fill="white"/>
<path d="M20.4089 4.81106H26.811C27.2766 4.81106 27.6646 4.42306 27.6646 3.95745C27.6646 3.95745 27.6646 3.95745 27.6646 3.91865C27.6646 3.45304 27.2766 3.06503 26.811 3.06503H20.4089C19.9433 3.06503 19.5553 3.45304 19.5553 3.91865C19.5553 3.91865 19.5553 3.91865 19.5553 3.95745C19.5553 4.46186 19.9433 4.81106 20.4089 4.81106Z" fill="white"/>
</svg>
