<svg width="50" height="44" viewBox="0 0 50 44" fill="none" xmlns="http://www.w3.org/2000/svg">
<path d="M38.6163 26.7676L38.6163 26.7677L38.6272 26.7691C38.9931 26.8148 39.155 27.1913 39.0044 27.4659L35.5348 30.1882L34.9057 30.6818L35.5366 31.1731L43.1758 37.1207C43.7402 37.5746 43.8276 38.3291 43.4028 38.8602C42.9492 39.4272 42.1929 39.5157 41.6609 39.0901L41.6609 39.0901L41.6544 39.085L34.0118 33.1346L33.386 32.6474L33.0586 33.3697L31.2443 37.3718C30.9925 37.6042 30.5773 37.5219 30.4383 37.2093L28.1493 31.4323L28.1493 31.4323L28.1466 31.4257L25.8085 25.7162C25.6853 25.3114 26.0152 24.9798 26.3373 25.0212L32.5022 25.8941L32.503 25.8943L38.6163 26.7676Z" fill="white" stroke="#051424" stroke-width="1.25"/>
<path d="M35.9206 36.0844C32.8635 39.0868 28.8784 41.1067 24.4566 41.6526C26.2581 40.4516 27.8958 38.9777 29.2605 37.2854L28.3325 34.938C26.9132 36.9032 25.1663 38.5955 23.1464 39.9603V30.5161C24.3474 30.5707 25.5484 30.6799 26.6948 30.8437L25.7668 28.5509C24.8933 28.4417 24.0744 28.3871 23.201 28.3871V23.0918H32.4268C32.4268 23.6377 32.3722 24.129 32.3176 24.6749L34.5012 25.0025C34.5558 24.402 34.6104 23.7469 34.665 23.0918H41.9801C41.8164 26.4764 40.7792 29.6427 39.0868 32.3722L40.8337 33.737C42.9628 30.3524 44.2184 26.3127 44.2184 22.0546C44 9.88089 34.1191 0 22 0C9.88089 0 0 9.88089 0 22C0 34.1191 9.88089 44 22 44C28.1141 44 33.6278 41.4888 37.6129 37.4491L35.9206 36.0844ZM38.3772 10.8089C40.397 13.7022 41.598 17.196 41.8164 20.9082H34.5012C34.3921 18.397 33.9553 15.995 33.1365 13.7568C35.1563 12.9926 36.9032 12.0099 38.3772 10.8089ZM37.0124 9.06203C35.7022 10.0993 34.1191 11.0273 32.3176 11.6824C30.5707 7.86104 27.8958 4.58561 24.4566 2.2928C29.4243 2.94789 33.9007 5.45906 37.0124 9.06203ZM23.0918 4.09429C26.2035 6.11414 28.6601 9.00744 30.2432 12.4466C28.0596 13.0471 25.6576 13.4293 23.0918 13.5385V4.09429ZM23.0918 15.6675C25.9305 15.5583 28.6055 15.1762 31.062 14.4119C31.7717 16.4318 32.2084 18.6154 32.3176 20.8536H23.0918V15.6675ZM19.598 2.34739C16.1588 4.6402 13.4839 7.91563 11.737 11.737C9.93548 11.0273 8.29777 10.1538 7.04218 9.11662C10.1538 5.45906 14.5757 2.94789 19.598 2.34739ZM5.67742 10.8089C7.15136 12.0099 8.89826 12.9926 10.9181 13.7568C10.0993 15.995 9.60794 18.397 9.55335 20.9082H2.23821C2.40199 17.196 3.65757 13.7022 5.67742 10.8089ZM5.67742 33.1911C3.65757 30.2978 2.45658 26.804 2.23821 23.0918H9.55335C9.66253 25.603 10.0993 28.005 10.9181 30.2432C8.89826 31.0074 7.09677 31.9901 5.67742 33.1911ZM6.98759 34.938C8.24318 33.9007 9.88089 33.0273 11.6824 32.3176C13.4293 36.139 16.1042 39.4144 19.5434 41.7072C14.5757 41.0521 10.1538 38.5409 6.98759 34.938ZM20.9082 39.9057C17.7965 37.8859 15.34 34.9926 13.7568 31.5533C15.9404 30.9529 18.397 30.5707 20.9082 30.4615V39.9057ZM20.9082 28.3325C18.0695 28.4417 15.3945 28.8238 12.938 29.5335C12.2283 27.5136 11.7916 25.33 11.6824 23.0918H20.9082V28.3325ZM20.9082 20.9082H11.737C11.8462 18.67 12.2829 16.4864 12.9926 14.4665C15.4491 15.1762 18.1241 15.6129 20.9628 15.6675V20.9082H20.9082ZM20.9082 13.4839C18.397 13.3747 15.9404 12.9926 13.7568 12.3921C15.34 8.95285 17.7965 6.05955 20.9082 4.0397V13.4839Z" fill="white"/>
</svg>
